<?xml version="1.0" encoding="UTF-8"?>
<svg version="1.1" xmlns="http://www.w3.org/2000/svg" width="34" height="32">
<path d="M0 0 C2.70075945 0.94526581 3.59465917 1.81088077 5.5 3.875 C6.263125 4.2875 7.02625 4.7 7.8125 5.125 C11.3260079 7.41286561 14.40078706 10.20532325 16.5 13.875 C15.95819071 20.08774653 9.6894953 24.84043628 5.4375 28.875 C4.80714844 29.473125 4.17679688 30.07125 3.52734375 30.6875 C1.5 31.875 1.5 31.875 -1.08203125 31.71875 C-4.40526596 30.55910752 -6.10264889 28.39852748 -8.5 25.875 C-9.49 25.545 -10.48 25.215 -11.5 24.875 C-12.53789581 23.23166496 -13.53567924 21.56256133 -14.5 19.875 C-15.0775 19.359375 -15.655 18.84375 -16.25 18.3125 C-17.5 16.875 -17.5 16.875 -17.4375 14.9375 C-16.25625549 12.33876207 -14.53847029 10.84976809 -12.5 8.875 C-12.17 7.885 -11.84 6.895 -11.5 5.875 C-9.51753602 4.84067096 -7.51586684 3.84261608 -5.5 2.875 C-4.984375 2.2975 -4.46875 1.72 -3.9375 1.125 C-2.5 -0.125 -2.5 -0.125 0 0 Z " fill="#2A68C5" transform="translate(17.5,0.125)"/>
<path d="M0 0 C2.70075945 0.94526581 3.59465917 1.81088077 5.5 3.875 C6.263125 4.2875 7.02625 4.7 7.8125 5.125 C11.3260079 7.41286561 14.40078706 10.20532325 16.5 13.875 C15.95819071 20.08774653 9.6894953 24.84043628 5.4375 28.875 C4.80714844 29.473125 4.17679688 30.07125 3.52734375 30.6875 C1.5 31.875 1.5 31.875 -1.08203125 31.71875 C-4.40526596 30.55910752 -6.10264889 28.39852748 -8.5 25.875 C-9.49 25.545 -10.48 25.215 -11.5 24.875 C-12.53789581 23.23166496 -13.53567924 21.56256133 -14.5 19.875 C-15.0775 19.359375 -15.655 18.84375 -16.25 18.3125 C-17.5 16.875 -17.5 16.875 -17.4375 14.9375 C-16.25625549 12.33876207 -14.53847029 10.84976809 -12.5 8.875 C-12.17 7.885 -11.84 6.895 -11.5 5.875 C-9.51753602 4.84067096 -7.51586684 3.84261608 -5.5 2.875 C-4.984375 2.2975 -4.46875 1.72 -3.9375 1.125 C-2.5 -0.125 -2.5 -0.125 0 0 Z M-1.5 0.875 C-2.28375 1.803125 -3.0675 2.73125 -3.875 3.6875 C-4.31585938 4.20957031 -4.75671875 4.73164062 -5.2109375 5.26953125 C-6.39201099 6.7405046 -7.45358529 8.30537794 -8.5 9.875 C-9.11875 9.99875 -9.7375 10.1225 -10.375 10.25 C-13.51089273 11.17232139 -14.64369669 13.28943468 -16.5 15.875 C-14.19 17.855 -11.88 19.835 -9.5 21.875 C-6.93750025 19.56267578 -6.93750025 19.56267578 -4.5 16.875 C-4.5 15.885 -4.5 14.895 -4.5 13.875 C-4.17 13.545 -3.84 13.215 -3.5 12.875 C-2.84 14.525 -2.18 16.175 -1.5 17.875 C-2.82 19.195 -4.14 20.515 -5.5 21.875 C-4.84 23.195 -4.18 24.515 -3.5 25.875 C-0.87886292 25.875 1.00935112 25.56207555 3.5 24.875 C3.5 23.555 3.5 22.235 3.5 20.875 C4.16 20.215 4.82 19.555 5.5 18.875 C5.83 19.865 6.16 20.855 6.5 21.875 C10.91889613 20.52478174 12.84345343 18.61384332 15.5 14.875 C13.52 13.225 11.54 11.575 9.5 9.875 C7.85 10.535 6.2 11.195 4.5 11.875 C4.5 9.25386292 4.81292445 7.36564888 5.5 4.875 C4.71625 4.58625 3.9325 4.2975 3.125 4 C0.5 2.875 0.5 2.875 -1.5 0.875 Z " fill="#030957" transform="translate(17.5,0.125)"/>
<path d="M0 0 C1.32 0.33 2.64 0.66 4 1 C4 2.32 4 3.64 4 5 C5.32 5.33 6.64 5.66 8 6 C7.175 6.4125 6.35 6.825 5.5 7.25 C4.675 7.8275 3.85 8.405 3 9 C3 10.32 3 11.64 3 13 C3.66 13.33 4.32 13.66 5 14 C5.66 13.34 6.32 12.68 7 12 C9 12 11 12 13 12 C11.02 14.31 9.04 16.62 7 19 C3.38194081 17.19097041 1.76364161 15.76364161 -1 13 C-1.99 12.67 -2.98 12.34 -4 12 C-3.52797514 7.75177626 -1.03344482 5.80010291 2 3 C1.34 2.01 0.68 1.02 0 0 Z " fill="#0E38A1" transform="translate(11,12)"/>
<path d="M0 0 C2.6755118 1.55352298 4.1495043 3.63457742 5.9375 6.125 C3.6275 8.105 1.3175 10.085 -1.0625 12.125 C-4.10720873 10.60264564 -5.26520948 7.94075514 -7.0625 5.125 C-2.7065281 0.16403201 -2.7065281 0.16403201 0 0 Z " fill="#75D2F8" transform="translate(27.0625,9.875)"/>
<path d="M0 0 C2.6755118 1.55352298 4.1495043 3.63457742 5.9375 6.125 C4.2875 8.105 2.6375 10.085 0.9375 12.125 C-2.59850465 10.21364614 -4.85222846 8.49857234 -7.0625 5.125 C-2.7065281 0.16403201 -2.7065281 0.16403201 0 0 Z " fill="#1E83E0" transform="translate(8.0625,9.875)"/>
<path d="M0 0 C2.94702738 1.10513527 3.87883653 2.29244382 5.5 4.9375 C1.98283697 4.9375 1.12878252 4.11304415 -1.5 1.9375 C-4.35751067 5.31791938 -4.35751067 5.31791938 -6.4375 9.1875 C-6.788125 9.765 -7.13875 10.3425 -7.5 10.9375 C-9.16500443 11.27903937 -10.83178677 11.61199498 -12.5 11.9375 C-14.32337753 13.8943288 -14.32337753 13.8943288 -15.5 15.9375 C-14.18 17.5875 -12.86 19.2375 -11.5 20.9375 C-13.96800047 19.78576645 -15.54783565 18.88966435 -17.5 16.9375 C-17.24463697 13.10705449 -15.14761354 11.50237562 -12.5 8.9375 C-12.17 7.9475 -11.84 6.9575 -11.5 5.9375 C-9.51753602 4.90317096 -7.51586684 3.90511608 -5.5 2.9375 C-4.984375 2.36 -4.46875 1.7825 -3.9375 1.1875 C-2.5 -0.0625 -2.5 -0.0625 0 0 Z " fill="#030D58" transform="translate(17.5,0.0625)"/>
<path d="M0 0 C5.875 3.625 5.875 3.625 7 7 C5.3125 9.0625 5.3125 9.0625 3 11 C0.4375 11 0.4375 11 -2 10 C-3.8125 7.9375 -3.8125 7.9375 -5 6 C-3.35 4.02 -1.7 2.04 0 0 Z " fill="#7FDAFA" transform="translate(16,1)"/>
<path d="M0 0 C2.62187494 1.04874998 3.79371361 1.64931313 5.25 4.125 C5.4975 4.74375 5.745 5.3625 6 6 C2.51941029 8.32039314 2.01857088 8 -2 8 C-2.66 6.68 -3.32 5.36 -4 4 C-2.68 2.68 -1.36 1.36 0 0 Z " fill="#40B7F7" transform="translate(16,18)"/>
<path d="M0 0 C1.65 0.99 3.3 1.98 5 3 C5.66 2.34 6.32 1.68 7 1 C9 1 11 1 13 1 C11.02 3.31 9.04 5.62 7 8 C2.9915966 5.9957983 1.58590343 4.50944037 -1 1 C-0.67 0.67 -0.34 0.34 0 0 Z " fill="#1B72D4" transform="translate(11,23)"/>
<path d="M0 0 C1.98 1.65 3.96 3.3 6 5 C4.68 6.32 3.36 7.64 2 9 C1.67 8.01 1.34 7.02 1 6 C-0.65 5.67 -2.3 5.34 -4 5 C-2.68 3.35 -1.36 1.7 0 0 Z " fill="#93E1F6" transform="translate(8,10)"/>
<path d="M0 0 C1.98 1.65 3.96 3.3 6 5 C1.56923077 10.78461538 1.56923077 10.78461538 -1.3125 11.875 C-1.869375 11.91625 -2.42625 11.9575 -3 12 C-2.67 11.01 -2.34 10.02 -2 9 C-1.01 8.67 -0.02 8.34 1 8 C1.33 7.34 1.66 6.68 2 6 C1.01 5.67 0.02 5.34 -1 5 C-0.01 4.67 0.98 4.34 2 4 C1.34 2.68 0.68 1.36 0 0 Z " fill="#3494E4" transform="translate(27,10)"/>
<path d="M0 0 C3.24208567 0.35049575 4.61527704 0.56221181 6.8125 3.0625 C7.204375 3.701875 7.59625 4.34125 8 5 C4.48283697 5 3.62878252 4.17554415 1 2 C-0.32 3.65 -1.64 5.3 -3 7 C-3.66 6.67 -4.32 6.34 -5 6 C-3.35 4.02 -1.7 2.04 0 0 Z " fill="#2C5AA9" transform="translate(15,0)"/>
<path d="M0 0 C0.99 0 1.98 0 3 0 C3.33 1.98 3.66 3.96 4 6 C2.35 6.66 0.7 7.32 -1 8 C-1.66 7.01 -2.32 6.02 -3 5 C-1.6875 2.5 -1.6875 2.5 0 0 Z " fill="#0C3597" transform="translate(23,5)"/>
<path d="M0 0 C0.33 0 0.66 0 1 0 C1 2.31 1 4.62 1 7 C0.34 7 -0.32 7 -1 7 C-1.33 7.99 -1.66 8.98 -2 10 C-2.99 8.68 -3.98 7.36 -5 6 C-3.35830472 3.97945196 -1.69088222 1.97956942 0 0 Z " fill="#AEE9F9" transform="translate(16,1)"/>
<path d="M0 0 C1.65 0.99 3.3 1.98 5 3 C5.66 2.34 6.32 1.68 7 1 C7 2.32 7 3.64 7 5 C5.68 5.33 4.36 5.66 3 6 C1.68 4.35 0.36 2.7 -1 1 C-0.67 0.67 -0.34 0.34 0 0 Z " fill="#1A7EDF" transform="translate(11,23)"/>
<path d="M0 0 C-1.25 2 -1.25 2 -3 4 C-4.32 4 -5.64 4 -7 4 C-6.625 2.0625 -6.625 2.0625 -6 0 C-3.50907189 -1.24546405 -2.58919267 -0.7767578 0 0 Z " fill="#052591" transform="translate(14,20)"/>
<path d="M0 0 C0.33 0.99 0.66 1.98 1 3 C-0.75 5 -0.75 5 -3 7 C-4.32 7 -5.64 7 -7 7 C-6.67 5.68 -6.34 4.36 -6 3 C-5.01 3.33 -4.02 3.66 -3 4 C-2.01 2.68 -1.02 1.36 0 0 Z " fill="#5CB9ED" transform="translate(22,5)"/>
<path d="M0 0 C2.0245738 1.93254772 3.42105792 3.63158688 5 6 C2.625 5.6875 2.625 5.6875 0 5 C-0.66 4.01 -1.32 3.02 -2 2 C-1.34 1.34 -0.68 0.68 0 0 Z " fill="#032491" transform="translate(22,18)"/>
<path d="M0 0 C0.99 0.33 1.98 0.66 3 1 C2.67 2.65 2.34 4.3 2 6 C1.01 5.67 0.02 5.34 -1 5 C-0.67 3.35 -0.34 1.7 0 0 Z " fill="#072082" transform="translate(8,5)"/>
<path d="M0 0 C3.16115776 1.36983503 3.9927092 1.9890638 6 5 C3.03 4.505 3.03 4.505 0 4 C-0.33 3.01 -0.66 2.02 -1 1 C-0.67 0.67 -0.34 0.34 0 0 Z " fill="#BBEFF9" transform="translate(16,18)"/>
</svg>
