<?xml version="1.0" encoding="UTF-8"?>
<svg version="1.1" xmlns="http://www.w3.org/2000/svg" width="32" height="32">
<path d="M0 0 C4.53540809 0.6845899 7.41228486 2.97340703 10.3125 6.5 C10.3125 7.49 10.3125 8.48 10.3125 9.5 C10.93125 9.78875 11.55 10.0775 12.1875 10.375 C14.3125 11.5 14.3125 11.5 16.3125 13.5 C16.8203125 15.66796875 16.8203125 15.66796875 16.3125 18.5 C14.53940641 21.19488771 12.40189573 23.47534973 10.1875 25.8125 C9.61773438 26.45767578 9.04796875 27.10285156 8.4609375 27.76757812 C5.68926111 30.74398062 4.17646219 32.33603637 0.1015625 33.109375 C-3.01147951 32.42921456 -4.08457464 31.78267412 -6.1875 29.4375 C-6.76628906 28.79941406 -7.34507813 28.16132813 -7.94140625 27.50390625 C-8.51761719 26.84261719 -9.09382812 26.18132813 -9.6875 25.5 C-10.27402344 24.89027344 -10.86054688 24.28054687 -11.46484375 23.65234375 C-13.84357129 21.10570604 -15.48357427 19.27862551 -16.375 15.875 C-15.39184363 12.47864163 -13.24343429 10.86891471 -10.6875 8.5 C-10.3575 7.51 -10.0275 6.52 -9.6875 5.5 C-8.05118108 4.45107762 -6.38264137 3.45093297 -4.6875 2.5 C-2.6875 0.5 -2.6875 0.5 0 0 Z " fill="#1548B0" transform="translate(15.6875,-0.5)"/>
<path d="M0 0 C2.46800047 1.15173355 4.04783565 2.04783565 6 4 C6.5078125 6.16796875 6.5078125 6.16796875 6 9 C4.22690641 11.69488771 2.08939573 13.97534973 -0.125 16.3125 C-0.69476562 16.95767578 -1.26453125 17.60285156 -1.8515625 18.26757812 C-4.60876917 21.22844211 -6.14248282 22.8308085 -10.1875 23.62890625 C-13.42685235 22.90455107 -14.64810811 22.04983784 -16.875 19.625 C-17.47054688 18.99851562 -18.06609375 18.37203125 -18.6796875 17.7265625 C-20 16 -20 16 -20 14 C-17.62051228 14.17625835 -16.29774151 14.69719773 -14.62109375 16.40234375 C-13.37884514 17.90649092 -12.18623944 19.45129851 -11 21 C-8.53199953 19.84826645 -6.95216435 18.95216435 -5 17 C-5.32198966 13.90073181 -5.32198966 13.90073181 -6 11 C-3.92446352 10.4465236 -2.15634036 10 0 10 C1.4606285 7.35261084 2 6.10551666 2 3 C1.34 2.01 0.68 1.02 0 0 Z " fill="#041167" transform="translate(26,9)"/>
<path d="M0 0 C4.875 2.625 4.875 2.625 6 6 C7.98 5.67 9.96 5.34 12 5 C12 5.99 12 6.98 12 8 C9.03 7.505 9.03 7.505 6 7 C6 7.99 6 8.98 6 10 C3.75 11.1875 3.75 11.1875 1 12 C-1.5522148 10.7238926 -2.66179464 9.63413506 -4 7.125 C-4 3.85001976 -2.13820538 2.33258768 0 0 Z " fill="#278EE1" transform="translate(6,9)"/>
<path d="M0 0 C4.53540809 0.6845899 7.41228486 2.97340703 10.3125 6.5 C10.3125 7.49 10.3125 8.48 10.3125 9.5 C8.3325 10.49 8.3325 10.49 6.3125 11.5 C6.3125 10.51 6.3125 9.52 6.3125 8.5 C6.9725 8.5 7.6325 8.5 8.3125 8.5 C8.3125 7.84 8.3125 7.18 8.3125 6.5 C7.508125 6.231875 6.70375 5.96375 5.875 5.6875 C5.029375 5.295625 4.18375 4.90375 3.3125 4.5 C2.9825 3.51 2.6525 2.52 2.3125 1.5 C-0.60267292 2.57401108 -2.46560176 3.27810176 -4.6875 5.5 C-5.08514263 7.48821313 -5.42525349 9.48944339 -5.6875 11.5 C-7.0075 11.17 -8.3275 10.84 -9.6875 10.5 C-11.42416727 12.69832713 -11.42416727 12.69832713 -12.6875 15.5 C-11.94895768 18.13813861 -11.94895768 18.13813861 -10.6875 20.5 C-10.6875 21.49 -10.6875 22.48 -10.6875 23.5 C-15.4875 19.3 -15.4875 19.3 -16.3125 16 C-15.43015651 12.47062606 -13.31377189 10.93410566 -10.6875 8.5 C-10.3575 7.51 -10.0275 6.52 -9.6875 5.5 C-8.05118108 4.45107762 -6.38264137 3.45093297 -4.6875 2.5 C-2.6875 0.5 -2.6875 0.5 0 0 Z " fill="#08136F" transform="translate(15.6875,-0.5)"/>
<path d="M0 0 C2.1875 2.25 2.1875 2.25 4 5 C3.82560493 8.05191378 3.18741485 8.81258515 1 11 C-1.45849212 10.76208141 -2.81202615 10.136119 -4.8125 8.6875 C-6 7 -6 7 -5.875 5 C-4.60577372 2.09891137 -3.33230935 0 0 0 Z " fill="#98D4F1" transform="translate(16,1)"/>
<path d="M0 0 C2.86207152 1.28299758 5.0245088 2.530636 7 5 C7 5.99 7 6.98 7 8 C4.10765685 8.82638376 2.11257569 9 -1 9 C-2.75 7.5 -2.75 7.5 -4 6 C-2.84826645 3.53199953 -1.95216435 1.95216435 0 0 Z " fill="#37A9F1" transform="translate(15,18)"/>
<path d="M0 0 C1.670625 0.4021875 1.670625 0.4021875 3.375 0.8125 C3.705 1.4725 4.035 2.1325 4.375 2.8125 C3.08534824 4.18812854 1.74810707 5.52016393 0.375 6.8125 C-0.285 6.8125 -0.945 6.8125 -1.625 6.8125 C-1.955 7.4725 -2.285 8.1325 -2.625 8.8125 C-3.945 6.8325 -5.265 4.8525 -6.625 2.8125 C-4.5563662 -0.22960853 -3.79305704 -0.19619261 0 0 Z " fill="#4ABDF6" transform="translate(25.625,12.1875)"/>
<path d="M0 0 C2 0 2 0 4 1.9375 C4.99 2.9584375 4.99 2.9584375 6 4 C6.66 4.33 7.32 4.66 8 5 C8 5.66 8 6.32 8 7 C7.34 7 6.68 7 6 7 C6.33 7.66 6.66 8.32 7 9 C8.32 9 9.64 9 11 9 C11.99 10.485 11.99 10.485 13 12 C11.88625 11.979375 10.7725 11.95875 9.625 11.9375 C6.16784079 11.73619282 6.16784079 11.73619282 4 13 C3.34 12.67 2.68 12.34 2 12 C2.3403125 10.3603125 2.3403125 10.3603125 2.6875 8.6875 C3.4158254 5.09907033 3.4158254 5.09907033 1.5625 3.1875 C1.046875 2.795625 0.53125 2.40375 0 2 C0 1.34 0 0.68 0 0 Z " fill="#236BC6" transform="translate(16,1)"/>
<path d="M0 0 C2.37948772 0.17625835 3.70225849 0.69719773 5.37890625 2.40234375 C6.62115486 3.90649092 7.81376056 5.45129851 9 7 C12.5786304 5.34832443 15.74820188 3.21713508 19 1 C17.55134433 4.38019657 15.91780427 6.73059668 13 9 C10.1875 9.6875 10.1875 9.6875 7 9 C4.33991789 6.93937301 2.04492718 4.67413554 0 2 C0 1.34 0 0.68 0 0 Z " fill="#020848" transform="translate(6,23)"/>
<path d="M0 0 C0.61875 0.28875 1.2375 0.5775 1.875 0.875 C2.205 1.865 2.535 2.855 2.875 3.875 C4.855 3.545 6.835 3.215 8.875 2.875 C8.875 3.865 8.875 4.855 8.875 5.875 C7.946875 5.854375 7.01875 5.83375 6.0625 5.8125 C2.85213989 5.71730396 2.85213989 5.71730396 -0.125 6.875 C-0.455 6.215 -0.785 5.555 -1.125 4.875 C-3.14169827 3.74149466 -3.14169827 3.74149466 -5.125 2.875 C-2.69803371 -0.15870787 -2.69803371 -0.15870787 0 0 Z " fill="#8ACEF0" transform="translate(9.125,11.125)"/>
<path d="M0 0 C1.32 0.99 2.64 1.98 4 3 C3.42655063 5.86724686 3.1385485 6.8614515 1 9 C0.01 9 -0.98 9 -2 9 C-2 7.68 -2 6.36 -2 5 C-1.34 5 -0.68 5 0 5 C0 3.35 0 1.7 0 0 Z " fill="#6ACFF8" transform="translate(16,3)"/>
<path d="M0 0 C0.86625 0.495 0.86625 0.495 1.75 1 C4.19883862 2.27075898 4.19883862 2.27075898 8 2 C8.99 2 9.98 2 11 2 C9.68 3.65 8.36 5.3 7 7 C4.13302508 5.71480435 2.02392288 4.42870746 0 2 C0 1.34 0 0.68 0 0 Z " fill="#1E6FCE" transform="translate(10,24)"/>
<path d="M0 0 C1.9375 0.8125 1.9375 0.8125 4 2 C4.33 2.99 4.66 3.98 5 5 C3.02 5.33 1.04 5.66 -1 6 C-1.625 4.125 -1.625 4.125 -2 2 C-1.34 1.34 -0.68 0.68 0 0 Z " fill="#95D9F3" transform="translate(15,18)"/>
<path d="M0 0 C0.99 0.33 1.98 0.66 3 1 C1.35 2.98 -0.3 4.96 -2 7 C-2.99 6.67 -3.98 6.34 -5 6 C-4.67 5.34 -4.34 4.68 -4 4 C-3.34 4 -2.68 4 -2 4 C-1.34 2.68 -0.68 1.36 0 0 Z " fill="#0F64C9" transform="translate(28,15)"/>
<path d="M0 0 C2.3431213 0.25561323 4.67843403 0.59270772 7 1 C7.33 1.66 7.66 2.32 8 3 C4.7 3 1.4 3 -2 3 C-1.34 2.01 -0.68 1.02 0 0 Z " fill="#93DEF7" transform="translate(22,12)"/>
</svg>
